<svg width="154" height="34" viewBox="0 0 154 34" fill="none" xmlns="http://www.w3.org/2000/svg">
   <path d="M11.1371 5.64854C8.5032 2.78325 3.73293 4.40175 2.64055 8.13723C1.3085 12.6922 2.00427 18.493 4.93275 23.7701C7.98572 29.2716 12.7257 32.8712 17.3678 33.7759C19.1723 34.1275 19.6173 31.7903 18.5075 30.3246C13.3852 23.5588 16.38 11.3522 11.1371 5.64854Z" fill="#FF7733"/>
   <path d="M20.7233 28.3541C23.3593 31.2174 28.1291 29.5983 29.2215 25.8628C30.5536 21.3078 29.8578 15.507 26.9293 10.2299C23.8763 4.72842 19.1364 1.12877 14.4943 0.224128C12.6898 -0.127524 12.2453 2.20901 13.3556 3.67429C18.4843 10.4425 15.4731 22.6512 20.7233 28.3541Z" fill="#FFBD5C"/>
   <path d="M42.1588 14.1983L38.0351 1.7829H41.2271L43.4184 9.14424L43.6254 11.653L44.0913 11.6713L44.954 13.887C44.5744 13.948 44.1373 14.003 43.6427 14.0518C43.1596 14.1128 42.665 14.1617 42.1588 14.1983ZM39.5535 3.15629L37.1724 2.75343L37.1897 1.7829H39.6052L39.5535 3.15629ZM44.9367 13.887L43.2803 13.2461L46.8347 1.7829H48.8707L44.9367 13.887ZM41.3134 3.33941L41.1581 1.7829H42.918L43.0215 2.36888C42.7685 2.53979 42.4982 2.7046 42.2106 2.8633C41.9345 3.022 41.6355 3.1807 41.3134 3.33941ZM47.3351 3.15629L44.954 2.75343L44.9712 1.7829H47.3868L47.3351 3.15629ZM48.0597 3.33941L47.9044 1.7829H49.6643L49.7679 2.36888C49.5148 2.53979 49.2445 2.7046 48.9569 2.8633C48.6809 3.022 48.3818 3.1807 48.0597 3.33941Z" fill="#023A6B"/>
   <path d="M49.8904 13.9053L49.7869 13.3193C50.0399 13.124 50.3103 12.947 50.5978 12.7883C50.8854 12.6296 51.1845 12.4831 51.495 12.3488L51.5123 13.9053H49.8904ZM59.4146 13.9053L56.7748 13.6123L57.8963 9.94996L59.6217 10.0965C59.6332 10.4383 59.6274 10.8411 59.6044 11.305C59.5929 11.7567 59.5699 12.2145 59.5354 12.6784C59.5009 13.1301 59.4607 13.5391 59.4146 13.9053ZM52.0644 3.08304L49.9594 2.75343L49.9767 1.7829H52.0817L52.0644 3.08304ZM57.4822 5.48189L56.9128 2.11252L59.5182 1.7829C59.5412 2.03927 59.5412 2.38109 59.5182 2.80836C59.4952 3.23564 59.4607 3.68733 59.4146 4.16344C59.3686 4.62734 59.2996 5.06682 59.2076 5.48189H57.4822ZM51.2535 13.9053V1.7829H54.3765V13.9053H51.2535ZM57.9826 8.77801L53.8416 8.59489V7.16657L57.9826 6.80033V8.77801ZM59.2766 3.76058L53.7208 3.35772L52.4267 1.7829H59.5182L59.2766 3.76058ZM52.5303 13.9053L53.8243 12.2572L59.3111 11.7995L59.3974 13.9053H52.5303Z" fill="#023A6B"/>
   <path d="M62.3405 13.9053V1.7829H65.4635V13.9053H62.3405ZM60.9775 13.9053L60.874 13.3193C61.127 13.124 61.3973 12.947 61.6849 12.7883C61.9725 12.6296 62.2715 12.4831 62.5821 12.3488L62.5994 13.9053H60.9775ZM63.7209 13.9053L65.0149 12.2572L70.5535 11.6896L70.8468 13.9053H63.7209ZM70.8468 13.9053L68.0516 13.6123L69.3112 9.2358L71.1056 9.40061C71.1171 9.82788 71.1114 10.3162 71.0884 10.8656C71.0769 11.4027 71.0538 11.9398 71.0193 12.477C70.9848 13.0141 70.9273 13.4902 70.8468 13.9053ZM63.393 3.15629L61.012 2.75343L61.0292 1.7829H63.4448L63.393 3.15629ZM65.222 3.33941L65.2047 1.7829H66.8266L66.9301 2.36888C66.6886 2.53979 66.424 2.7046 66.1364 2.8633C65.8489 3.022 65.5441 3.1807 65.222 3.33941Z" fill="#023A6B"/>
   <path d="M77.3155 14.2715C76.5563 14.2715 75.8259 14.1373 75.1242 13.8687C74.434 13.6001 73.8129 13.2034 73.2607 12.6784C72.7201 12.1413 72.2888 11.482 71.9667 10.7007C71.6561 9.90723 71.5008 8.98554 71.5008 7.93567C71.5008 6.60501 71.7539 5.45137 72.26 4.47474C72.7661 3.49811 73.4505 2.74732 74.3132 2.22239C75.1759 1.68524 76.1364 1.41667 77.1947 1.41667C77.9654 1.41667 78.6958 1.56316 79.3859 1.85615C80.0876 2.13693 80.703 2.56421 81.2321 3.13798C81.7727 3.69954 82.1983 4.38928 82.5089 5.20721C82.8195 6.02514 82.9748 6.95904 82.9748 8.00891C82.9748 9.05879 82.8195 9.98048 82.5089 10.774C82.1983 11.5553 81.7785 12.2023 81.2494 12.715C80.7202 13.2278 80.1164 13.6184 79.4377 13.887C78.759 14.1434 78.0516 14.2715 77.3155 14.2715ZM77.626 12.4953C77.7871 12.4953 77.9308 12.4831 78.0574 12.4587C78.1839 12.4221 78.3104 12.3854 78.437 12.3488C78.8166 11.9826 79.1214 11.421 79.3514 10.6641C79.5815 9.89503 79.6965 9.02827 79.6965 8.06385C79.6965 7.44125 79.639 6.84306 79.524 6.26929C79.4204 5.68331 79.2537 5.16448 79.0236 4.71279C78.805 4.24889 78.5232 3.88266 78.1782 3.61408C77.8446 3.3333 77.442 3.19291 76.9704 3.19291C76.7978 3.19291 76.6138 3.21733 76.4182 3.26616C76.2342 3.30278 76.0617 3.35772 75.9006 3.43096C75.6936 3.6385 75.5038 3.93759 75.3312 4.32824C75.1587 4.71889 75.0207 5.1889 74.9171 5.73825C74.8251 6.2876 74.7791 6.898 74.7791 7.56943C74.7791 8.28969 74.8366 8.95502 74.9516 9.56541C75.0782 10.1636 75.2622 10.6824 75.5038 11.1219C75.7453 11.5614 76.0387 11.9032 76.3837 12.1474C76.7403 12.3793 77.1544 12.4953 77.626 12.4953Z" fill="#023A6B"/>
   <path d="M90.421 14.1983C89.4548 14.2471 88.6151 14.1556 87.9019 13.9236C87.1887 13.6917 86.5848 13.3682 86.0902 12.9531C85.5956 12.538 85.1988 12.0619 84.8997 11.5248C84.6006 10.9754 84.3821 10.4017 84.244 9.80347C84.106 9.19308 84.037 8.59489 84.037 8.00891C84.037 7.17878 84.1578 6.37306 84.3993 5.59176C84.6524 4.81045 85.0262 4.1085 85.5208 3.4859C86.0154 2.85109 86.6366 2.35057 87.3843 1.98433C88.1434 1.60589 89.0407 1.41667 90.0759 1.41667C90.9616 1.41667 91.6978 1.54485 92.2844 1.80122C92.8711 2.05758 93.3484 2.32615 93.7165 2.60693L93.1816 5.13396C92.549 4.5724 91.8761 4.12071 91.1629 3.77889C90.4497 3.42486 89.6215 3.22343 88.6783 3.1746C88.3332 3.50421 88.0457 3.91318 87.8156 4.40149C87.5971 4.8776 87.436 5.38422 87.3325 5.92137C87.229 6.45851 87.1772 6.99566 87.1772 7.53281C87.1772 8.38736 87.3037 9.16255 87.5568 9.8584C87.8099 10.542 88.1952 11.0853 88.7128 11.4882C89.2305 11.891 89.8689 12.0863 90.628 12.0741L93.5612 11.0853L94.0443 12.5869L90.421 14.1983ZM91.4562 6.1228L90.7488 2.77174L93.7165 2.60693C93.7395 2.8633 93.7338 3.20512 93.6993 3.63239C93.6762 4.04746 93.6302 4.48084 93.5612 4.93253C93.4922 5.38422 93.4117 5.78098 93.3197 6.1228H91.4562Z" fill="#023A6B"/>
   <path d="M94.6937 13.9053L94.5901 13.3193C94.8432 13.124 95.1135 12.947 95.4011 12.7883C95.6886 12.6296 95.9877 12.4831 96.2983 12.3488L96.3155 13.9053H94.6937ZM104.218 13.9053L101.578 13.6123L102.7 9.94996L104.425 10.0965C104.436 10.4383 104.431 10.8411 104.408 11.305C104.396 11.7567 104.373 12.2145 104.339 12.6784C104.304 13.1301 104.264 13.5391 104.218 13.9053ZM96.8677 3.08304L94.7627 2.75343L94.7799 1.7829H96.8849L96.8677 3.08304ZM102.285 5.48189L101.716 2.11252L104.321 1.7829C104.344 2.03927 104.344 2.38109 104.321 2.80836C104.298 3.23564 104.264 3.68733 104.218 4.16344C104.172 4.62734 104.103 5.06682 104.011 5.48189H102.285ZM96.0567 13.9053V1.7829H99.1797V13.9053H96.0567ZM102.786 8.77801L98.6448 8.59489V7.16657L102.786 6.80033V8.77801ZM104.08 3.76058L98.5241 3.35772L97.23 1.7829H104.321L104.08 3.76058ZM97.3335 13.9053L98.6276 12.2572L104.114 11.7995L104.201 13.9053H97.3335Z" fill="#023A6B"/>
   <path d="M43.798 32.5101C42.8317 32.5589 41.992 32.4674 41.2789 32.2354C40.5657 32.0035 39.9618 31.68 39.4672 31.2649C38.9726 30.8498 38.5757 30.3737 38.2767 29.8366C37.9776 29.2872 37.7591 28.7134 37.621 28.1153C37.483 27.5049 37.414 26.9067 37.414 26.3207C37.414 25.4906 37.5347 24.6848 37.7763 23.9035C38.0294 23.1222 38.4032 22.4203 38.8978 21.7977C39.3924 21.1629 40.0136 20.6624 40.7613 20.2961C41.5204 19.9177 42.4176 19.7285 43.4529 19.7285C44.3386 19.7285 45.0748 19.8566 45.6614 20.113C46.248 20.3694 46.7254 20.6379 47.0935 20.9187L46.5586 23.4457C45.926 22.8842 45.2531 22.4325 44.5399 22.0907C43.8267 21.7367 42.9985 21.5352 42.0553 21.4864C41.7102 21.816 41.4227 22.225 41.1926 22.7133C40.9741 23.1894 40.813 23.696 40.7095 24.2332C40.606 24.7703 40.5542 25.3074 40.5542 25.8446C40.5542 26.6991 40.6807 27.4743 40.9338 28.1702C41.1869 28.8538 41.5722 29.3971 42.0898 29.7999C42.6074 30.2028 43.2458 30.3981 44.005 30.3859L46.9382 29.3971L47.4213 30.8986L43.798 32.5101ZM44.8332 24.4346L44.1258 21.0835L47.0935 20.9187C47.1165 21.1751 47.1107 21.5169 47.0762 21.9442C47.0532 22.3592 47.0072 22.7926 46.9382 23.2443C46.8692 23.696 46.7887 24.0928 46.6967 24.4346H44.8332Z" fill="#023A6B"/>
   <path d="M53.2204 32.5833C52.4613 32.5833 51.7308 32.449 51.0292 32.1805C50.339 31.9119 49.7179 31.5151 49.1657 30.9902C48.6251 30.4531 48.1938 29.7938 47.8717 29.0125C47.5611 28.219 47.4058 27.2973 47.4058 26.2475C47.4058 24.9168 47.6589 23.7632 48.165 22.7865C48.6711 21.8099 49.3555 21.0591 50.2182 20.5342C51.0809 19.997 52.0414 19.7285 53.0997 19.7285C53.8703 19.7285 54.6008 19.875 55.2909 20.1679C55.9926 20.4487 56.608 20.876 57.1371 21.4498C57.6777 22.0113 58.1033 22.7011 58.4139 23.519C58.7245 24.3369 58.8798 25.2708 58.8798 26.3207C58.8798 27.3706 58.7245 28.2923 58.4139 29.0858C58.1033 29.8671 57.6835 30.5141 57.1544 31.0268C56.6252 31.5396 56.0213 31.9302 55.3427 32.1988C54.664 32.4551 53.9566 32.5833 53.2204 32.5833ZM53.531 30.8071C53.692 30.8071 53.8358 30.7949 53.9624 30.7705C54.0889 30.7338 54.2154 30.6972 54.3419 30.6606C54.7215 30.2944 55.0264 29.7328 55.2564 28.9759C55.4865 28.2068 55.6015 27.3401 55.6015 26.3756C55.6015 25.753 55.544 25.1549 55.429 24.5811C55.3254 23.9951 55.1586 23.4763 54.9286 23.0246C54.71 22.5607 54.4282 22.1944 54.0831 21.9259C53.7496 21.6451 53.347 21.5047 52.8754 21.5047C52.7028 21.5047 52.5188 21.5291 52.3232 21.5779C52.1392 21.6146 51.9666 21.6695 51.8056 21.7428C51.5986 21.9503 51.4088 22.2494 51.2362 22.64C51.0637 23.0307 50.9256 23.5007 50.8221 24.05C50.7301 24.5994 50.6841 25.2098 50.6841 25.8812C50.6841 26.6015 50.7416 27.2668 50.8566 27.8772C50.9832 28.4754 51.1672 28.9942 51.4088 29.4337C51.6503 29.8732 51.9436 30.215 52.2887 30.4592C52.6453 30.6911 53.0594 30.8071 53.531 30.8071Z" fill="#023A6B"/>
   <path d="M59.579 32.2171L59.4754 31.6311C59.7285 31.4358 59.9988 31.2588 60.2864 31.1001C60.5739 30.9414 60.873 30.7949 61.1836 30.6606L61.2008 32.2171H59.579ZM63.6337 32.2171L63.6854 30.8437L66.0665 31.2466L66.0492 32.2171H63.6337ZM61.6494 21.3948L59.5445 21.0652L59.5617 20.0947H61.6667L61.6494 21.3948ZM67.0672 23.9035L66.4978 20.4243L69.1032 20.0947C69.1262 20.3511 69.1262 20.7051 69.1032 21.1568C69.0802 21.5963 69.0457 22.0602 68.9997 22.5485C68.9537 23.0368 68.8846 23.4885 68.7926 23.9035H67.0672ZM60.8385 32.2171V20.0947H63.9615V32.2171H60.8385ZM68.5856 22.0541L63.5129 21.6695L62.2188 20.0947H69.1032L68.5856 22.0541ZM67.7746 27.5659L63.6337 27.3645V25.808L67.7746 25.4784V27.5659Z" fill="#023A6B"/>
   <path d="M69.9583 32.2171L69.8548 31.6311C70.1079 31.4358 70.3782 31.2588 70.6658 31.1001C70.9533 30.9414 71.2524 30.7949 71.563 30.6606L71.5802 32.2171H69.9583ZM74.0131 32.2171L74.0648 30.8437L76.4459 31.2466L76.4286 32.2171H74.0131ZM72.0288 21.3948L69.9238 21.0652L69.9411 20.0947H72.0461L72.0288 21.3948ZM77.4466 23.9035L76.8772 20.4243L79.4826 20.0947C79.5056 20.3511 79.5056 20.7051 79.4826 21.1568C79.4596 21.5963 79.4251 22.0602 79.3791 22.5485C79.333 23.0368 79.264 23.4885 79.172 23.9035H77.4466ZM71.2179 32.2171V20.0947H74.3409V32.2171H71.2179ZM78.965 22.0541L73.8923 21.6695L72.5982 20.0947H79.4826L78.965 22.0541ZM78.154 27.5659L74.0131 27.3645V25.808L78.154 25.4784V27.5659Z" fill="#023A6B"/>
   <path d="M80.3377 32.2171L80.2342 31.6311C80.4873 31.4358 80.7576 31.2588 81.0452 31.1001C81.3327 30.9414 81.6318 30.7949 81.9424 30.6606L81.9596 32.2171H80.3377ZM89.862 32.2171L87.2221 31.9241L88.3436 28.2618L90.069 28.4082C90.0805 28.7501 90.0748 29.1529 90.0518 29.6168C90.0403 30.0685 90.0173 30.5263 89.9828 30.9902C89.9482 31.4419 89.908 31.8509 89.862 32.2171ZM82.5117 21.3948L80.4068 21.0652L80.424 20.0947H82.529L82.5117 21.3948ZM87.9295 23.7937L87.3601 20.4243L89.9655 20.0947C89.9885 20.3511 89.9885 20.6929 89.9655 21.1202C89.9425 21.5474 89.908 21.9991 89.862 22.4752C89.816 22.9391 89.747 23.3786 89.6549 23.7937H87.9295ZM81.7008 32.2171V20.0947H84.8238V32.2171H81.7008ZM88.4299 27.0898L84.2889 26.9067V25.4784L88.4299 25.1121V27.0898ZM89.7239 22.0724L84.1681 21.6695L82.8741 20.0947H89.9655L89.7239 22.0724ZM82.9776 32.2171L84.2717 30.569L89.7585 30.1112L89.8447 32.2171H82.9776Z" fill="#023A6B"/>
   <path d="M91.4248 32.2171L91.3213 31.6311C91.5744 31.4358 91.8447 31.2588 92.1322 31.1001C92.4198 30.9414 92.7189 30.7949 93.0294 30.6606L93.0467 32.2171H91.4248ZM100.949 32.2171L98.3092 31.9241L99.4307 28.2618L101.156 28.4082C101.168 28.7501 101.162 29.1529 101.139 29.6168C101.127 30.0685 101.104 30.5263 101.07 30.9902C101.035 31.4419 100.995 31.8509 100.949 32.2171ZM93.5988 21.3948L91.4938 21.0652L91.5111 20.0947H93.6161L93.5988 21.3948ZM99.0166 23.7937L98.4472 20.4243L101.053 20.0947C101.076 20.3511 101.076 20.6929 101.053 21.1202C101.03 21.5474 100.995 21.9991 100.949 22.4752C100.903 22.9391 100.834 23.3786 100.742 23.7937H99.0166ZM92.7879 32.2171V20.0947H95.9109V32.2171H92.7879ZM99.517 27.0898L95.376 26.9067V25.4784L99.517 25.1121V27.0898ZM100.811 22.0724L95.2552 21.6695L93.9612 20.0947H101.053L100.811 22.0724ZM94.0647 32.2171L95.3587 30.569L100.846 30.1112L100.932 32.2171H94.0647Z" fill="#023A6B"/>
   <path d="M111.789 32.565C111.351 32.565 110.868 32.5223 110.339 32.4368C109.822 32.3514 109.31 32.2293 108.804 32.0706C108.297 31.8997 107.849 31.6922 107.458 31.448L108.217 29.0858C108.585 29.5253 108.993 29.8854 109.442 30.1662C109.902 30.4347 110.374 30.6301 110.857 30.7522C111.351 30.8742 111.829 30.9475 112.289 30.9719C112.622 30.8132 112.858 30.6057 112.996 30.3493C113.146 30.0929 113.221 29.8427 113.221 29.5985C113.221 29.2445 113.106 28.9393 112.876 28.6829C112.645 28.4266 112.341 28.1946 111.961 27.9871C111.593 27.7795 111.167 27.5598 110.684 27.3279C110.178 27.0715 109.678 26.7846 109.183 26.4672C108.689 26.1376 108.274 25.7347 107.941 25.2586C107.607 24.7825 107.44 24.1904 107.44 23.4824C107.44 22.7377 107.636 22.0846 108.027 21.523C108.43 20.9492 108.982 20.5098 109.684 20.2046C110.385 19.8872 111.185 19.7285 112.082 19.7285C112.507 19.7285 112.945 19.7651 113.393 19.8383C113.853 19.8994 114.285 19.9848 114.687 20.0947C115.101 20.1924 115.464 20.3022 115.774 20.4243L114.825 22.933C114.308 22.347 113.732 21.932 113.1 21.6878C112.479 21.4315 111.829 21.2972 111.15 21.285C110.874 21.4437 110.673 21.6573 110.546 21.9259C110.431 22.1822 110.374 22.4264 110.374 22.6583C110.374 22.988 110.5 23.2748 110.753 23.519C111.006 23.7509 111.334 23.9707 111.737 24.1782C112.151 24.3858 112.605 24.6116 113.1 24.8558C113.617 25.1121 114.118 25.4051 114.601 25.7347C115.096 26.0643 115.498 26.4733 115.809 26.9616C116.131 27.4499 116.292 28.0664 116.292 28.8111C116.292 29.6168 116.085 30.3005 115.671 30.862C115.257 31.4236 114.71 31.8509 114.032 32.1439C113.353 32.4246 112.605 32.565 111.789 32.565ZM110.736 31.6128L107.458 31.448C107.446 31.1916 107.446 30.8498 107.458 30.4225C107.481 29.9831 107.515 29.5375 107.561 29.0858C107.619 28.6219 107.688 28.2312 107.768 27.9138H109.166L110.736 31.6128ZM113.824 23.9219L112.824 20.6074L115.774 20.4243C115.774 20.7661 115.757 21.1385 115.722 21.5413C115.699 21.9442 115.665 22.3531 115.619 22.7682C115.573 23.1711 115.504 23.5556 115.412 23.9219H113.824Z" fill="#023A6B"/>
   <path d="M118.787 32.2171V20.0947H121.91V32.2171H118.787ZM121.064 27.0349V25.3136H127.172V27.0349H121.064ZM126.103 32.2171V20.0947H129.226V32.2171H126.103ZM119.839 21.4681L117.458 21.0652L117.476 20.0947H119.891L119.839 21.4681ZM121.668 21.6512L121.651 20.0947H123.273L123.376 20.6807C123.135 20.8516 122.87 21.0164 122.583 21.1751C122.295 21.3338 121.99 21.4925 121.668 21.6512ZM127.155 21.4681L124.774 21.0652L124.791 20.0947H127.207L127.155 21.4681ZM128.984 21.6512L128.967 20.0947H130.589L130.692 20.6807C130.451 20.8516 130.186 21.0164 129.899 21.1751C129.611 21.3338 129.306 21.4925 128.984 21.6512ZM117.424 32.2171L117.32 31.6311C117.573 31.4358 117.844 31.2588 118.131 31.1001C118.419 30.9414 118.718 30.7949 119.028 30.6606L119.046 32.2171H117.424ZM121.047 32.2171L121.099 30.8437L123.48 31.2466L123.463 32.2171H121.047ZM124.74 32.2171L124.636 31.6311C124.889 31.4358 125.159 31.2588 125.447 31.1001C125.735 30.9414 126.034 30.7949 126.344 30.6606L126.361 32.2171H124.74ZM128.363 32.2171L128.415 30.8437L130.796 31.2466L130.778 32.2171H128.363Z" fill="#023A6B"/>
   <path d="M137.047 32.5833C136.288 32.5833 135.558 32.449 134.856 32.1805C134.166 31.9119 133.545 31.5151 132.993 30.9902C132.452 30.4531 132.021 29.7938 131.699 29.0125C131.388 28.219 131.233 27.2973 131.233 26.2475C131.233 24.9168 131.486 23.7632 131.992 22.7865C132.498 21.8099 133.183 21.0591 134.045 20.5342C134.908 19.997 135.868 19.7285 136.927 19.7285C137.697 19.7285 138.428 19.875 139.118 20.1679C139.82 20.4487 140.435 20.876 140.964 21.4498C141.505 22.0113 141.93 22.7011 142.241 23.519C142.552 24.3369 142.707 25.2708 142.707 26.3207C142.707 27.3706 142.552 28.2923 142.241 29.0858C141.93 29.8671 141.511 30.5141 140.981 31.0268C140.452 31.5396 139.848 31.9302 139.17 32.1988C138.491 32.4551 137.784 32.5833 137.047 32.5833ZM137.358 30.8071C137.519 30.8071 137.663 30.7949 137.789 30.7705C137.916 30.7338 138.042 30.6972 138.169 30.6606C138.549 30.2944 138.853 29.7328 139.083 28.9759C139.314 28.2068 139.429 27.3401 139.429 26.3756C139.429 25.753 139.371 25.1549 139.256 24.5811C139.152 23.9951 138.986 23.4763 138.756 23.0246C138.537 22.5607 138.255 22.1944 137.91 21.9259C137.577 21.6451 137.174 21.5047 136.702 21.5047C136.53 21.5047 136.346 21.5291 136.15 21.5779C135.966 21.6146 135.794 21.6695 135.633 21.7428C135.426 21.9503 135.236 22.2494 135.063 22.64C134.891 23.0307 134.753 23.5007 134.649 24.05C134.557 24.5994 134.511 25.2098 134.511 25.8812C134.511 26.6015 134.569 27.2668 134.684 27.8772C134.81 28.4754 134.994 28.9942 135.236 29.4337C135.477 29.8732 135.771 30.215 136.116 30.4592C136.472 30.6911 136.886 30.8071 137.358 30.8071Z" fill="#023A6B"/>
   <path d="M147.288 27.9504L147.34 25.9728C147.535 26.046 147.731 26.101 147.927 26.1376C148.122 26.1742 148.306 26.2047 148.479 26.2291C148.651 26.2414 148.801 26.2475 148.927 26.2475C149.376 26.2475 149.738 26.1437 150.014 25.9362C150.29 25.7164 150.492 25.4356 150.618 25.0938C150.756 24.7398 150.825 24.3674 150.825 23.9768C150.825 23.6716 150.791 23.3603 150.722 23.0429C150.653 22.7133 150.549 22.4142 150.411 22.1456C150.285 21.877 150.118 21.6756 149.911 21.5413L147.599 21.8343L143.389 20.0947L149.341 19.9482C150.365 19.936 151.222 20.1252 151.912 20.5159C152.602 20.9065 153.12 21.4131 153.465 22.0357C153.822 22.6583 154 23.3237 154 24.0317C154 24.752 153.81 25.4112 153.431 26.0094C153.051 26.5954 152.528 27.0593 151.861 27.4011C151.193 27.7429 150.405 27.9199 149.497 27.9321L147.288 27.9504ZM143.406 32.2171L143.302 31.6311C143.556 31.4358 143.826 31.2588 144.113 31.1001C144.401 30.9414 144.7 30.7949 145.011 30.6606L145.028 32.2171H143.406ZM147.461 32.2171L147.512 30.8437L149.894 31.2466L149.876 32.2171H147.461ZM144.666 32.2171V20.0947H147.789V32.2171H144.666ZM145.477 21.3948L143.372 21.0652L143.389 20.0947H145.494L145.477 21.3948Z" fill="#023A6B"/>
</svg>